<svg width="376" height="134" viewBox="0 0 376 134" fill="none" xmlns="http://www.w3.org/2000/svg">
<circle cx="8.86783" cy="25.2356" r="8.86783" fill="#051359"/>
<path d="M316.897 68.3407V79.4048C316.133 79.479 315.283 79.5157 314.363 79.5157C313.513 79.5899 312.478 79.6274 311.249 79.6274H307.092C305.168 79.6274 303.268 79.4271 301.383 79.02C299.497 78.6122 297.782 77.8938 296.244 76.857C294.707 75.8282 293.455 74.4282 292.497 72.6579C291.531 70.8884 291.052 68.6743 291.052 66.0228V32.7268H282.861V22.773H291.052V5.08096H306.397V22.773H316.557V32.7268H306.397V62.8158C306.397 64.9565 306.938 66.4299 308.011 67.2376C309.094 68.0517 310.515 68.4516 312.285 68.4516H315.283C315.823 68.4516 316.364 68.4221 316.897 68.3407Z" fill="#051359"/>
<path d="M144.975 22.7713C144.975 22.7713 133.517 59.3111 133.207 60.711H132.976L120.397 22.7713H103.893L111.302 41.5448C109.906 44.2594 99.1831 64.5167 80.5436 71.5979C76.5417 73.1176 68.4419 76.074 58.3372 74.508C55.9963 74.1448 53.7007 73.5231 51.5146 72.6563C49.5599 71.6418 47.6435 70.7239 45.9594 69.2944C43.0541 66.8353 40.8751 63.4735 40.3499 59.7556V59.5114C42.3429 59.7261 44.3679 59.8147 46.4072 59.7923C50.7651 59.7484 55.1382 59.43 59.3876 58.4746C65.6851 57.0602 71.7814 54.135 75.9151 49.3724C80.056 44.6034 81.9412 37.835 79.8093 31.9845C76.9886 24.2152 67.6166 19.8165 59.0787 20.6386C50.5408 21.4607 42.9847 26.5706 37.4287 32.8433C34.6782 35.9609 32.3141 39.4273 30.5525 43.1443C30.4671 43.0925 30.3897 43.0406 30.3051 42.9815C30.2436 42.9081 29.4008 42.2336 29.3856 42.2265C27.6472 40.6708 27.3998 40.3604 26.1866 38.1016C22.3466 30.9916 11.1429 37.2795 14.9836 44.3815C17.6798 49.3724 22.0841 53.261 27.2609 55.8159C27.0678 59.9041 27.6855 64.0066 29.2619 67.7987C32.5535 75.7076 39.8471 81.7505 48.1535 84.75C56.4672 87.7495 65.7003 87.8971 74.4082 86.2457C92.2103 82.8687 108.174 71.716 117.283 56.7122L119.825 63.1478C120.667 65.2805 121.378 67.1466 121.958 68.7317C122.537 70.3161 122.993 71.7009 123.341 72.8782C123.688 74.0563 123.936 75.1082 124.09 76.0333C124.245 76.9517 124.322 77.7813 124.322 78.522C124.322 80.8765 123.65 82.7578 122.305 84.1578C120.953 85.5569 118.704 86.2609 115.553 86.2609H110.012V98.0952H119.246C122.243 98.0952 124.801 97.7991 126.918 97.214C129.035 96.6218 130.882 95.6443 132.458 94.2816C134.034 92.9112 135.417 91.1409 136.615 88.9715C137.804 86.7941 138.979 84.1202 140.13 80.9508L160.783 22.7713H144.975ZM42.7221 47.1583C44.6225 43.4333 47.4272 40.1752 50.6494 37.4199C52.1715 36.1237 53.8636 35.0127 55.6866 34.1243C57.1855 33.3988 59.3876 32.8209 60.5394 32.8209C63.7224 32.8066 68.0884 34.1395 67.7787 37.9164C67.6087 39.9677 66.1097 41.73 64.333 42.8778C64.4873 42.7878 64.6419 42.7014 64.7967 42.6184C59.0476 46.6626 51.4763 47.721 44.5219 47.373C43.9113 47.3435 43.2935 47.2996 42.6829 47.2325C42.6981 47.2102 42.7061 47.1806 42.7221 47.1583Z" fill="#051359"/>
<path d="M218.769 39.4198C217.27 35.769 215.152 32.5995 212.425 29.9105C209.69 27.2151 206.437 25.0968 202.674 23.5492C198.904 22.0015 194.708 21.2241 190.095 21.2241C185.475 21.2241 181.287 22.0015 177.517 23.5492C173.746 25.0968 170.493 27.2151 167.765 29.9105C165.03 32.5995 162.921 35.769 161.422 39.4198C159.915 43.0706 159.166 46.9959 159.166 51.2022C159.166 55.4013 159.915 59.3267 161.422 62.9775C162.921 66.6282 165.03 69.7985 167.765 72.4867C170.493 75.1821 173.746 77.3004 177.517 78.8481C181.287 80.3957 185.475 81.1731 190.095 81.1731C194.708 81.1731 198.904 80.3957 202.674 78.8481C206.437 77.3004 209.69 75.1821 212.425 72.4867C215.152 69.7985 217.27 66.6282 218.769 62.9775C220.268 59.3267 221.017 55.4016 221.017 51.2022C221.017 46.997 220.268 43.0695 218.769 39.4198ZM201.229 64.5849C198.649 67.9763 194.94 69.6724 190.095 69.6724C185.251 69.6724 181.534 67.9763 178.961 64.5849C176.381 61.1928 175.09 56.7271 175.09 51.2022C175.09 45.6704 176.38 41.1901 178.961 37.7612C181.534 34.3323 185.251 32.6139 190.095 32.6139C194.94 32.6139 198.649 34.3323 201.229 37.7612C203.81 41.1901 205.093 45.6702 205.093 51.2022C205.093 56.7271 203.81 61.1928 201.229 64.5849Z" fill="#051359"/>
<path d="M278.481 22.7705V79.5133H263.368V72.8782H263.021C261.019 75.4554 258.733 77.4692 256.152 78.9059C253.571 80.3426 250.21 81.0609 246.053 81.0609C239.439 81.0609 234.363 79.2169 230.824 75.5289C227.285 71.8414 225.516 66.8649 225.516 60.5993V22.7705H241.093V58.0516C241.093 61.3767 241.881 63.9172 243.457 65.6868C245.033 67.4571 247.514 68.3383 250.906 68.3383C254.599 68.3383 257.496 67.1458 259.613 64.7465C261.731 62.3545 262.789 59.2736 262.789 55.5118V22.7705H278.481Z" fill="#051359"/>
<path d="M375.991 42.4618V79.5132H360.299V44.6687C360.299 41.5735 359.41 39.0704 357.641 37.1517C355.871 35.2337 353.337 34.2711 350.03 34.2711C346.569 34.2711 343.702 35.4779 341.43 37.87C339.158 40.2701 338.031 43.4172 338.031 47.3274V79.5132H322.33V0.426758H338.031V30.1829H338.371C340.527 27.1619 342.914 24.9103 345.525 23.4361C348.145 21.9627 351.49 21.222 355.569 21.222C358.645 21.222 361.434 21.7632 363.93 22.8295C366.433 23.8958 368.566 25.3692 370.335 27.2505C372.105 29.1318 373.487 31.361 374.492 33.9455C375.489 36.5227 375.991 39.3666 375.991 42.4618Z" fill="#051359"/>
<path d="M220.207 107.972C221.578 108.438 222.731 109.248 223.664 110.401C224.597 111.552 225.063 112.979 225.063 114.68C225.063 117.096 224.281 118.989 222.718 120.36C221.154 121.732 219.014 122.419 216.297 122.419H204.855V94.4318H215.598C218.259 94.4318 220.331 95.0767 221.812 96.3666C223.294 97.655 224.035 99.4383 224.035 101.716C224.035 103.171 223.678 104.44 222.965 105.524C222.251 106.607 221.332 107.396 220.207 107.89V107.972ZM215.021 105.668C216.064 105.668 216.866 105.393 217.428 104.844C217.991 104.295 218.273 103.5 218.273 102.457C218.273 101.414 217.999 100.612 217.45 100.05C216.9 99.4867 216.118 99.2193 215.104 99.2476H210.617V105.668H215.021ZM215.474 117.603C216.598 117.63 217.483 117.349 218.129 116.759C218.773 116.17 219.095 115.243 219.095 113.981C219.095 112.801 218.752 111.917 218.066 111.327C217.38 110.736 216.461 110.441 215.309 110.442H210.617V117.603H215.474Z" fill="#2440F0"/>
<path d="M232.089 120.443C230.155 118.852 229.188 116.341 229.188 112.912V94.4328H234.95V112.912C234.95 114.421 235.341 115.676 236.122 116.678C236.904 117.679 238.118 118.18 239.764 118.18C241.411 118.18 242.632 117.672 243.427 116.656C244.223 115.642 244.621 114.394 244.621 112.912V94.4328H250.383V112.912C250.383 116.369 249.423 118.886 247.502 120.464C245.581 122.042 243.002 122.831 239.764 122.831C236.582 122.831 234.023 122.035 232.089 120.443Z" fill="#2440F0"/>
<path d="M257.457 96.0794C259.185 94.7076 261.353 94.0217 263.959 94.0217C267.033 94.0217 269.955 94.6667 272.725 95.9565V100.895C269.955 99.3857 267.184 98.6309 264.412 98.6309C263.178 98.6309 262.272 98.8778 261.696 99.3715C261.12 99.866 260.831 100.483 260.831 101.224C260.831 102.047 261.263 102.788 262.127 103.447C262.992 104.105 264.041 104.715 265.276 105.278C266.511 105.841 267.746 106.479 268.981 107.191C270.215 107.905 271.264 108.9 272.129 110.176C272.993 111.452 273.426 112.94 273.426 114.641C273.426 117.138 272.513 119.127 270.689 120.609C268.864 122.09 266.498 122.831 263.589 122.831C260.351 122.831 257.374 122.172 254.658 120.856V115.876C258.088 117.44 261.01 118.222 263.424 118.222C266.113 118.222 267.457 117.206 267.458 115.176C267.458 114.244 267.026 113.421 266.161 112.706C265.297 111.993 264.248 111.355 263.013 110.793C261.777 110.231 260.543 109.613 259.309 108.941C258.074 108.268 257.024 107.328 256.16 106.121C255.296 104.915 254.864 103.474 254.864 101.8C254.864 99.3581 255.728 97.4512 257.457 96.0794Z" fill="#2440F0"/>
<path d="M282.131 120.815H277.143V95.5841H282.131V120.815Z" fill="#2440F0"/>
<path d="M302.452 111.965H302.657C302.438 109.494 302.329 106.559 302.329 103.157V94.4318H307.761V122.419H301.999L292.039 104.886H291.834C292.052 107.356 292.162 110.292 292.163 113.693V122.419H286.729V94.4318H292.492L302.452 111.965Z" fill="#2440F0"/>
<path d="M319.198 105.668H329.94V110.442H319.198V117.603H332.12L331.709 122.419H313.436V94.4318H331.792V99.2476H319.198V105.668Z" fill="#2440F0"/>
<path d="M338.053 96.0794C339.782 94.7076 341.949 94.0217 344.556 94.0217C347.629 94.0217 350.551 94.6667 353.322 95.9565V100.895C350.551 99.3857 347.78 98.6309 345.008 98.6309C343.774 98.6309 342.869 98.8778 342.293 99.3715C341.716 99.866 341.428 100.483 341.428 101.224C341.428 102.047 341.86 102.788 342.724 103.447C343.588 104.105 344.638 104.715 345.873 105.278C347.108 105.841 348.342 106.479 349.577 107.191C350.812 107.905 351.861 108.9 352.725 110.176C353.59 111.452 354.022 112.94 354.022 114.641C354.022 117.138 353.11 119.127 351.285 120.609C349.461 122.09 347.094 122.831 344.186 122.831C340.948 122.831 337.971 122.172 335.255 120.856V115.876C338.684 117.44 341.606 118.222 344.021 118.222C346.709 118.222 348.054 117.206 348.055 115.176C348.055 114.244 347.622 113.421 346.758 112.706C345.894 111.993 344.844 111.355 343.61 110.793C342.374 110.231 341.139 109.613 339.905 108.941C338.671 108.268 337.621 107.328 336.756 106.121C335.892 104.915 335.46 103.474 335.46 101.8C335.46 99.3581 336.325 97.4512 338.053 96.0794Z" fill="#2440F0"/>
<path d="M360.031 96.0794C361.759 94.7076 363.927 94.0217 366.533 94.0217C369.607 94.0217 372.529 94.6667 375.299 95.9565V100.895C372.529 99.3857 369.758 98.6309 366.986 98.6309C365.752 98.6309 364.847 98.8778 364.27 99.3715C363.694 99.866 363.406 100.483 363.406 101.224C363.406 102.047 363.837 102.788 364.701 103.447C365.566 104.105 366.616 104.715 367.85 105.278C369.085 105.841 370.32 106.479 371.555 107.191C372.79 107.905 373.839 108.9 374.703 110.176C375.567 111.452 376 112.94 376 114.641C376 117.138 375.087 119.127 373.263 120.609C371.438 122.09 369.072 122.831 366.164 122.831C362.926 122.831 359.948 122.172 357.232 120.856V115.876C360.662 117.44 363.584 118.222 365.998 118.222C368.687 118.222 370.031 117.206 370.032 115.176C370.032 114.244 369.6 113.421 368.735 112.706C367.871 111.993 366.822 111.355 365.587 110.793C364.352 110.231 363.117 109.613 361.883 108.941C360.648 108.268 359.598 107.328 358.734 106.121C357.87 104.915 357.438 103.474 357.438 101.8C357.438 99.3581 358.302 97.4512 360.031 96.0794Z" fill="#2440F0"/>
</svg>
